# xmcd
#
# Track frame offsets:
#	150
#	14387
#	37224
#	50976
#	75501
#	91966
#	109239
#	123311
#	134859
#	147186
#	160751
#	175716
#	193004
#	206109
#	223623
#	239473
#	254383
#	272838
#	291498
#	304176
#	321006
#	338534
#
# Disc length: 4730 seconds
#
# Revision: 1
# Processed by: cddbd v1.5.1PL2 Copyright (c) Steve Scherf et al.
# Submitted via: audiograbber 1.83.01
#
DISCID=56127816
DTITLE=Various Artist - Take your boots and come join our line VOL IV
DYEAR=1900
DGENRE=Country
TTITLE0=Alan John Britton - Everbody is linedancing
TTITLE1=Ronnie McDowell - Funky Cowboy
TTITLE2=Tim McGraw - Two steppin mind
TTITLE3=Kimberly Clayton - Addicted to love
TTITLE4=Bellamy Brothers - Native American
TTITLE5=Bye Brothers - Cry of Celts
TTITLE6=Alan Jackson - Chasin that neon cowboy
TTITLE7=Smoking Amadillos - I'm a cowboy
TTITLE8=Perfect Stranger - I ain't never
TTITLE9=Tim McGraw - Down on the farm
TTITLE10=Sawyer Brown - Thank god for you
TTITLE11=Alan Jackson - Livin' on Love
TTITLE12=Dixie Chicks - Let'er rip
TTITLE13=Demy Leigh - 29 Nights
TTITLE14=Deborah Allen - Is it Love yet
TTITLE15=Newten - Love and Affection
TTITLE16=Daily Planet - Dueling Banjos
TTITLE17=Newton - Sometimes we touch
TTITLE18=Trini Triggs - Straight tequilla
TTITLE19=Garth Brook - If tomorrow never comes
TTITLE20=Rick Tippe - l-o-v-e
TTITLE21=The Cheap seats - Brown exed girl
EXTD=
EXTT0=
EXTT1=
EXTT2=
EXTT3=
EXTT4=
EXTT5=
EXTT6=
EXTT7=
EXTT8=
EXTT9=
EXTT10=
EXTT11=
EXTT12=
EXTT13=
EXTT14=
EXTT15=
EXTT16=
EXTT17=
EXTT18=
EXTT19=
EXTT20=
EXTT21=
PLAYORDER=
